<svg width="25" height="31" viewBox="0 0 25 31" fill="none" xmlns="http://www.w3.org/2000/svg">
<path d="M24.0061 26.7969L22.2883 6.80859C22.2515 6.36483 21.8895 6.02883 21.4662 6.02883H17.9325C17.8834 2.69427 15.2454 0 12.0061 0C8.76685 0 6.12882 2.69427 6.07974 6.02883H2.54601C2.11656 6.02883 1.76073 6.36483 1.72392 6.80859L0.00613509 26.7969C0.00613509 26.8223 0 26.8476 0 26.873C0 29.1489 2.0184 31 4.50306 31H19.5091C21.9938 31 24.0122 29.1489 24.0122 26.873C24.0122 26.8476 24.0122 26.8223 24.0061 26.7969ZM12.0061 1.71166C14.3313 1.71166 16.227 3.63885 16.276 6.02883H7.73618C7.78525 3.63885 9.68096 1.71166 12.0061 1.71166ZM19.5091 29.2883H4.50306C2.94478 29.2883 1.68098 28.2233 1.65644 26.911L3.3006 7.74683H6.0736V10.346C6.0736 10.8215 6.4417 11.2018 6.90182 11.2018C7.36194 11.2018 7.73004 10.8215 7.73004 10.346V7.74683H16.276V10.346C16.276 10.8215 16.6441 11.2018 17.1042 11.2018C17.5644 11.2018 17.9325 10.8215 17.9325 10.346V7.74683H20.7055L22.3558 26.911C22.3312 28.2233 21.0613 29.2883 19.5091 29.2883Z" fill="#2D315B"/>
</svg>
